<?xml version="1.0" standalone="no"?>
<!DOCTYPE svg PUBLIC "-//W3C//DTD SVG 20010904//EN"
 "http://www.w3.org/TR/2001/REC-SVG-20010904/DTD/svg10.dtd">
<svg version="1.0" xmlns="http://www.w3.org/2000/svg"
 width="512.000000pt" height="359.000000pt" viewBox="0 0 512.000000 359.000000"
 preserveAspectRatio="xMidYMid meet">

<g transform="translate(0.000000,359.000000) scale(0.100000,-0.100000)"
fill="#000000" stroke="none">
<path d="M62 3396 c46 -85 1994 -3376 1998 -3376 3 0 49 77 103 170 l97 170
-882 1492 c-485 821 -891 1510 -902 1530 l-21 38 -203 0 -203 0 13 -24z"/>
<path d="M1086 3373 c15 -27 143 -244 284 -483 716 -1212 1383 -2343 1520
-2575 84 -143 159 -268 166 -278 11 -17 15 -15 40 30 16 26 237 401 491 833
l463 785 -122 122 c-68 68 -126 123 -129 123 -7 0 -703 -1172 -715 -1204 -4
-9 -11 -15 -16 -14 -5 2 -368 611 -807 1353 l-797 1350 -203 3 -203 2 28 -47z"/>
<path d="M2067 3372 c126 -219 969 -1642 973 -1642 3 0 49 76 102 169 l98 169
-141 239 c-78 131 -202 342 -277 468 -74 127 -143 242 -154 257 -10 14 -18 32
-18 40 0 7 -75 89 -168 181 l-167 167 -138 0 -137 0 27 -48z"/>
<path d="M3940 1845 c69 -69 127 -125 130 -125 2 0 -51 56 -120 125 -69 69
-127 125 -130 125 -2 0 51 -56 120 -125z"/>
</g>
</svg>
